<svg xmlns="http://www.w3.org/2000/svg" width="923.617" height="256.675" viewBox="0 0 923.617 256.675">
  <path id="Path_123" data-name="Path 123" d="M998.748,394.7,752.1,395.932l-246.639.7-123.3.236-123.443.148a353.548,353.548,0,0,1-61.628-6.967c-20.27-4.227-40.293-10.475-58.787-20.21a147.148,147.148,0,0,1-13.464-8.011,122.3,122.3,0,0,1-12.527-9.489A107.439,107.439,0,0,1,91.6,328.688a102.882,102.882,0,0,1-7.417-13.953c-.552-1.192-.986-2.444-1.489-3.666l-.789-1.852c-.227-.621-.424-1.251-.631-1.872-.414-1.251-.848-2.493-1.243-3.754l-1.055-3.8c-.375-1.261-.631-2.552-.917-3.833s-.612-2.562-.809-3.863c-.434-2.592-.917-5.173-1.164-7.785a132.956,132.956,0,0,1-.907-15.687v.187c-.069-1.468-.059-2.739,0-4.089s.118-2.641.217-3.942.266-2.621.395-3.942l.552-3.942a109.721,109.721,0,0,1,17.4-43.4,122.16,122.16,0,0,1,20.812-23.374,145.631,145.631,0,0,1,25.7-17.658c2.3-1.212,4.577-2.463,6.9-3.626l7.092-3.212c1.194-.512,2.348-1.113,3.561-1.557l3.63-1.389c2.426-.916,4.833-1.872,7.269-2.749l7.4-2.345,3.7-1.173c1.233-.394,2.5-.67,3.748-.985,5.011-1.251,9.982-2.7,15.072-3.616a368.843,368.843,0,0,1,61.352-7.134l15.436-.335h46.073l61.421.089,122.851.305,245.693.828,245.683,1.4v.3l-491.385-.177H275.42l-15.348.345a366.148,366.148,0,0,0-60.878,7.144c-5.04.907-9.952,2.345-14.9,3.6-1.233.335-2.486.6-3.7.985l-3.65,1.163-7.309,2.326c-2.407.867-4.774,1.813-7.171,2.72l-3.62,1.311c-1.2.434-2.338.985-3.511,1.537l-6.983,3.173c-2.279,1.143-4.518,2.385-6.776,3.577a142.81,142.81,0,0,0-25.142,17.333,119.269,119.269,0,0,0-20.27,22.832,107.363,107.363,0,0,0-13.316,27.424,92.623,92.623,0,0,0-4.685,30.064h0a133.229,133.229,0,0,0,.878,15.333c.237,2.552.71,5.065,1.134,7.6.2,1.261.533,2.5.789,3.754s.523,2.5.9,3.735l.986,3.705c.375,1.222.8,2.434,1.2,3.646.207.6.395,1.222.612,1.823l.7,1.784c.483,1.182.9,2.395,1.44,3.557a99.972,99.972,0,0,0,7.191,13.549,104.6,104.6,0,0,0,20.142,23.058,119.413,119.413,0,0,0,12.241,9.292,144.322,144.322,0,0,0,13.207,7.883c18.159,9.6,37.955,15.766,58.028,20.013a350.841,350.841,0,0,0,61.154,6.977H505.42l493.328.079Z" transform="translate(-75.131 -140.34)" fill="#989898"/>
</svg>
