<svg xmlns="http://www.w3.org/2000/svg" xmlns:xlink="http://www.w3.org/1999/xlink" width="450.661" height="380.04" viewBox="0 0 450.661 380.04">
  <defs>
    <linearGradient id="linear-gradient" x1="0.69" y1="0.78" x2="0.309" y2="0.218" gradientUnits="objectBoundingBox">
      <stop offset="0" stop-color="#92278f"/>
      <stop offset="1" stop-color="#662d91"/>
    </linearGradient>
    <linearGradient id="linear-gradient-2" x1="-0.062" y1="0.499" x2="1.027" y2="0.499" xlink:href="#linear-gradient"/>
    <linearGradient id="linear-gradient-3" x1="-0.007" y1="0.5" x2="1.006" y2="0.5" xlink:href="#linear-gradient"/>
    <linearGradient id="linear-gradient-4" x1="-0.043" y1="0.5" x2="1.029" y2="0.5" xlink:href="#linear-gradient"/>
  </defs>
  <g id="Group_499" data-name="Group 499" transform="translate(-721 -794)">
    <path id="Path_6" data-name="Path 6" d="M103.62,114.17c-10,4.07-20.67,6.39-30.47,10.92S54.11,137,50.9,147.3c-7,22.67,17.44,44.24,16.2,67.95-.75,14.22-10.53,26-17.94,38.21-11.45,18.8-17.93,41.15-15.14,63s15.67,42.81,35.37,52.62c6.05,3,13,5.31,16.72,11,3.26,5,3,11.5,4.53,17.32,4.22,16.43,22,26.09,38.91,27.65s33.69-2.94,50.55-4.8a164.24,164.24,0,0,1,71.07,7.87c16.11,5.53,35.72,13,48.49,1.74,4.55-4,7.14-9.75,10.66-14.69C326,393,357,389.62,384.05,387.7s58.23-6.81,72.16-30.13c16-26.81.44-64.66,17.62-90.75,2.61-4,5.93-7.54,7.69-12,1.56-3.91,1.78-8.2,2-12.41.63-13,1.24-26.21-1.78-38.86-3.64-15.22-12.5-29.52-11.85-45.15.35-8.42,3.47-16.47,4.65-24.81s-.12-17.92-6.68-23.2c-8.55-6.88-21.13-3.29-31.91-5.31-12.42-2.32-21.91-12-31.3-20.45-11.32-10.19-23.86-19.37-38.17-24.6s-30.59-6.23-44.63-.33C309.26,65,299.09,75.46,286,79.2c-16.88,4.81-34.54-2.35-51.06-8.27-15.61-5.6-32-10.23-48.53-9.44C148.41,63.31,136.3,100.86,103.62,114.17Z" transform="translate(687.625 738.324)" fill="#f0e0ef"/>
    <path id="Path_7" data-name="Path 7" d="M113.24,123.87c-9.35,3.81-19.32,6-28.48,10.21S67,145.2,64,154.83C57.37,176,80.26,196.19,79.1,218.35c-.7,13.3-9.84,24.35-16.77,35.72-10.7,17.57-16.76,38.47-14.16,58.88s14.64,40,33.06,49.19c5.66,2.82,12.19,5,15.63,10.27,3,4.72,2.84,10.75,4.24,16.2C105,404,121.68,413,137.47,414.45S169,411.7,184.73,410a153.539,153.539,0,0,1,66.44,7.36c15.06,5.17,33.39,12.16,45.33,1.63,4.26-3.75,6.67-9.11,10-13.74,14.71-20.69,43.61-23.85,68.94-25.64s54.43-6.37,67.46-28.16c15-25.07.41-60.44,16.47-84.83,2.44-3.71,5.54-7,7.19-11.17,1.46-3.65,1.67-7.67,1.86-11.6.59-12.15,1.16-24.5-1.67-36.33-3.4-14.23-11.68-27.59-11.07-42.21.33-7.87,3.25-15.4,4.35-23.19s-.11-16.75-6.25-21.69c-8-6.43-19.75-3.08-29.83-5-11.61-2.17-20.48-11.21-29.26-19.11-10.58-9.53-22.31-18.11-35.68-23s-28.59-5.82-41.72-.31C305.48,77.93,296,87.68,283.71,91.17,267.93,95.67,251.42,89,236,83.44c-14.6-5.23-29.88-9.57-45.36-8.82C155.11,76.32,143.79,111.42,113.24,123.87Z" transform="translate(687.625 738.324)" fill="#f7f7f7"/>
    <path id="Path_8" data-name="Path 8" d="M207.51,264.24s4.81-10.13,3.61-18.09c0,0-7.16,5.17-11.34,5.17,0,0,18.9-26.66,17.31-54.9,0,0-2.39,4-15.12,16.71,0,0,5.57-27.85-2.19-45,0,0-.81,2.26-2.21,5.77a144.84,144.84,0,0,1-25.79,41.8c-5.59,6.36-13.24,16.46-17.19,27.72-.2.56-.39,1.12-.6,1.67-1.2,3.23-5.74,22.19,5.09,38.42L199.79,276Z" transform="translate(687.625 738.324)" fill="#d8def1"/>
    <path id="Path_9" data-name="Path 9" d="M259.29,272.14s3.82,71.33,1,85.49l6.64-7.9-.37-83.83Z" transform="translate(687.625 738.324)" opacity="0.05"/>
    <path id="Path_10" data-name="Path 10" d="M266.58,265.9l-15.75,13.47s6.69,55.8,1.51,87.75L267,349.73Z" transform="translate(687.625 738.324)" opacity="0.05"/>
    <path id="Path_11" data-name="Path 11" d="M289.05,239.42s5-9.89,20.35-22.69c0,0,.82,11.12-4.7,26.13,0,0,2-14.45.9-17.67C305.61,225.19,299.48,227.76,289.05,239.42Z" transform="translate(687.625 738.324)" fill="#020202" opacity="0.03"/>
    <path id="Path_12" data-name="Path 12" d="M158.27,282.14,207,265S179.37,247.8,158.27,282.14Z" transform="translate(687.625 738.324)" fill="#020202" opacity="0.02"/>
    <path id="Path_13" data-name="Path 13" d="M177.32,264.83A26.6,26.6,0,0,1,188.41,253s4.41,9.36-1.34,16.67" transform="translate(687.625 738.324)" fill="#020202" opacity="0.03"/>
    <path id="Path_14" data-name="Path 14" d="M179.31,265.74s3.65-7.3,8.26-10.15c0,0,.14,8.66-1.49,12.45Z" transform="translate(687.625 738.324)" fill="#020202" opacity="0.03"/>
    <path id="Path_15" data-name="Path 15" d="M199.79,168.17s-.3,19.5-21.7,46.58c0,0-10.4,11-19.12,34.32a31.59,31.59,0,0,0,.37,23.61,21.73,21.73,0,0,0,7.4,9.45l-7.64,1.42s-11.36-14.11-4.49-40.09c0,0,2.77-10.52,17.19-27.72C171.79,215.75,191.73,193.7,199.79,168.17Z" transform="translate(687.625 738.324)" fill="#fff" opacity="0.15"/>
    <path id="Path_16" data-name="Path 16" d="M154.07,284.9l.37,87.92,90.91,2.61-1.87-89.79Z" transform="translate(687.625 738.324)" fill="#935123"/>
    <path id="Path_17" data-name="Path 17" d="M243.48,285.64l23.1-19.74.38,83.83-21.61,25.7Z" transform="translate(687.625 738.324)" fill="#854a20"/>
    <path id="Path_18" data-name="Path 18" d="M266.58,265.9l-82.33-.86L154.07,284.9l89.41.74Z" transform="translate(687.625 738.324)" fill="#864b20" stroke="#583019" stroke-miterlimit="10" stroke-width="0.05"/>
    <path id="Path_19" data-name="Path 19" d="M201.55,105.48q-16.47,23.4-33.69,46.22c-5.78,7.58-11.66,15.08-17.35,22.74s-11.18,15.45-16.6,23.28l-16.25,23.53-16.14,23.59c-5.36,7.88-10.73,15.74-15.88,23.74-2.56,4-5.16,8-7.54,12.11s-4.84,8.22-6.34,12.72h-.19l.5-1.73a12.188,12.188,0,0,1,.57-1.71c.46-1.1.89-2.23,1.38-3.32,1-2.16,2-4.33,3.2-6.42s2.29-4.19,3.47-6.27,2.4-4.13,3.63-6.18q7.43-12.24,15.44-24.11c5.32-7.92,10.84-15.7,16.37-23.47s11.19-15.45,16.9-23.09,11.39-15.29,17-23,11-15.59,16.53-23.34,11.32-15.34,17.12-22.91,11.69-15.07,17.74-22.44Z" transform="translate(687.625 738.324)" fill="url(#linear-gradient)"/>
    <path id="Path_20" data-name="Path 20" d="M112.29,190.63c-2.52,5.11-5.24,10.12-8.22,15a76.558,76.558,0,0,1-4.73,7.14A41,41,0,0,1,93.51,219l-.07-.07c1.79-2.22,3.48-4.48,5.09-6.81s3.28-4.62,4.86-7,3.07-4.78,4.53-7.22,2.91-4.89,4.28-7.38Z" transform="translate(687.625 738.324)" fill="#92278f"/>
    <path id="Path_21" data-name="Path 21" d="M114.61,273.41c-1.47,2.24-2.93,4.48-4.33,6.76s-2.79,4.56-4.1,6.87-2.39,4.75-3.68,7a43.91,43.91,0,0,0-3.34,7.14H99a11.751,11.751,0,0,1,0-2.08,17.534,17.534,0,0,1,.38-2c.18-.66.38-1.33.6-2l.75-1.91a47.272,47.272,0,0,1,4.12-7q2.25-3.36,4.64-6.6c1.62-2.14,3.26-4.27,5-6.32Z" transform="translate(687.625 738.324)" fill="#92278f"/>
    <path id="Path_22" data-name="Path 22" d="M120.44,355c-1.22,2-2.42,4-3.55,6s-2.27,4.05-3.32,6.11-1.91,4.22-3.06,6.22-2.25,4-3.62,6l-.19-.07a27.8,27.8,0,0,1,2-6.79,43.853,43.853,0,0,1,3.47-6.13q1.87-3,3.87-5.86c1.37-1.9,2.75-3.78,4.23-5.59Z" transform="translate(687.625 738.324)" fill="#92278f"/>
    <path id="Path_23" data-name="Path 23" d="M395.33,283.55c-1.87,1.15-3.75,2.28-5.57,3.49s-3.64,2.4-5.4,3.66c-.87.64-1.72,1.31-2.52,2s-1.65,1.33-2.5,1.93-1.7,1.2-2.51,1.82a10.16,10.16,0,0,0-2.21,2.2h-.3a5.47,5.47,0,0,1,.9-3.51,13.743,13.743,0,0,1,2.19-2.75,23.4,23.4,0,0,1,5.67-3.68c1.95-1.08,3.94-2.05,6-2.95s4.07-1.73,6.16-2.45Z" transform="translate(687.625 738.324)" fill="url(#linear-gradient-2)"/>
    <path id="Path_24" data-name="Path 24" d="M353.71,86.15Q337.34,103.49,321.17,121T289,156.15q-8,8.86-15.88,17.77c-5.28,5.94-10.55,11.88-15.73,17.9s-10.42,12-15.47,18.12c-2.51,3.07-5,6.16-7.39,9.34a62.608,62.608,0,0,0-6.57,9.9h-.09A62.81,62.81,0,0,1,234.13,219c2.33-3.23,4.79-6.35,7.26-9.47,5-6.22,10.06-12.32,15.21-18.37s10.47-12,15.75-17.9,10.67-11.78,16-17.65q32.2-35.17,65.26-69.53Z" transform="translate(687.625 738.324)" fill="#92278f"/>
    <path id="Path_25" data-name="Path 25" d="M326.64,84.16q-4.81,5.61-9.84,11c-3.35,3.6-6.71,7.18-10.19,10.64s-7.1,6.81-10.52,10.34-6.68,7.21-9.88,10.94L267,149.43q-4.81,5.56-9.51,11.21a105.661,105.661,0,0,0-8.74,11.79l-.18-.09a72.419,72.419,0,0,1,7.67-12.66c2.89-4,6-7.84,9.13-11.63s6.47-7.42,9.8-11,6.73-7.18,10.2-10.67,6.9-7,10.21-10.65,6.49-7.4,9.79-11,6.78-7.13,10.28-10.57,7.1-6.82,10.81-10.05Z" transform="translate(687.625 738.324)" fill="#92278f"/>
    <path id="Path_26" data-name="Path 26" d="M394.94,144.7q-6.58,8.63-13.25,17.18t-13.53,17c-4.55,5.62-9,11.31-13.91,16.67-2.45,2.67-4.9,5.34-7.5,7.88a78.692,78.692,0,0,1-8.13,7.25l-.13-.15c5-5.22,9.56-10.8,14.25-16.29s9.47-10.9,14.19-16.38,9.35-11,14-16.58,9.28-11.09,13.87-16.68Z" transform="translate(687.625 738.324)" fill="#92278f"/>
    <path id="Path_27" data-name="Path 27" d="M245.38,105.94q-5.71,6.29-11.24,12.74t-10.92,13c-3.56,4.4-7,8.9-10.36,13.43-1.69,2.26-3.31,4.58-4.82,7a38.406,38.406,0,0,0-2.1,3.65,11,11,0,0,0-1.35,4h-.1a11.26,11.26,0,0,1,1-4.14,37.854,37.854,0,0,1,1.92-3.82c1.4-2.48,3-4.84,4.61-7.18,3.28-4.64,6.9-9,10.55-13.35,7.3-8.68,14.9-17.09,22.7-25.3Z" transform="translate(687.625 738.324)" fill="#92278f"/>
    <path id="Path_28" data-name="Path 28" d="M250.83,279.37s-53.85-7.28-83-3.5L184.25,265l82.34.86Z" transform="translate(687.625 738.324)" opacity="0.03"/>
    <path id="Path_29" data-name="Path 29" d="M154.07,284.9s6.36,71.27,34.41,88.9l-34-1Z" transform="translate(687.625 738.324)" fill="#fff" opacity="0.05"/>
    <path id="Path_30" data-name="Path 30" d="M154.07,284.9s17.46,77.13,68.72,89.89l-68.35-2Z" transform="translate(687.625 738.324)" fill="#fff" opacity="0.03"/>
    <path id="Path_31" data-name="Path 31" d="M451.67,181.58q-10.24,11.86-20.86,23.36c-7.06,7.68-14.17,15.32-21.45,22.79l-11,11.11q-5.535,5.535-11,11.18c-7.21,7.54-14.19,15.31-21.09,23.14s-13.79,15.67-20.76,23.43l-20.85,23.33-10.48,11.6q-5.27,5.78-10.44,11.64c-3.44,3.91-6.95,7.77-10.29,11.76a131.1,131.1,0,0,0-9.64,12.26l-.26-.14c.65-1.13,1.23-2.32,2-3.42s1.42-2.2,2.16-3.29c1.51-2.14,3-4.3,4.6-6.36s3.18-4.15,4.79-6.21,3.24-4.1,4.9-6.12q10-12.11,20.32-23.86c6.92-7.82,14-15.46,21.15-23.1s14.34-15.18,21.64-22.64,14.54-15,21.58-22.68l5.26-5.8,5.2-5.86L407.54,226c7-7.71,14.28-15.23,21.58-22.68s14.73-14.8,22.33-22Z" transform="translate(687.625 738.324)" fill="url(#linear-gradient-3)"/>
    <path id="Path_32" data-name="Path 32" d="M356.81,312c-2.7,2.7-5.39,5.39-8,8.16s-5.26,5.5-7.79,8.33-4.81,5.86-7.34,8.61q-1.89,2.08-3.7,4.21a28.67,28.67,0,0,0-3.26,4.55l-.29-.07a14.18,14.18,0,0,1,1.79-5.65,38,38,0,0,1,3.13-4.95,66.784,66.784,0,0,1,7.94-8.39c2.77-2.65,5.61-5.22,8.48-7.75s5.83-4.95,8.85-7.29Z" transform="translate(687.625 738.324)" fill="url(#linear-gradient-4)"/>
    <path id="Path_33" data-name="Path 33" d="M254.66,314.33s-7.82-41,21.61-76c0,0,37.26-39.49,41.73-51.41,0,0,3-6.33,3-10.8,0,0,6,41-12.67,72.28a36.14,36.14,0,0,0,18.26-15.28s-6,34.65-14.16,44c0,0,6.33-1.49,9.69-5.59,0,0-1.12,52.92-52.72,63l-5.4,1.86s5.22-11.18,13-15.65c0,0-13.41,5.59-16.39,11.55,0,0-1.38-19.75,3-26.08C263.6,306.14,257.27,311.72,254.66,314.33Z" transform="translate(687.625 738.324)" fill="#d8def1"/>
    <path id="Path_34" data-name="Path 34" d="M304.41,243.73c.65-2.21,1.3-4.41,1.82-6.64s1-4.47,1.44-6.72.72-4.52,1-6.8a59.525,59.525,0,0,0,.39-6.83l.6.26c-2,1.77-3.94,3.55-5.86,5.38s-3.8,3.7-5.65,5.6-3.64,3.86-5.32,5.91a24.14,24.14,0,0,0-4.19,6.71,15.9,15.9,0,0,1,.69-1.87,19.892,19.892,0,0,1,.95-1.76c.38-.55.69-1.14,1.08-1.69l1.17-1.63c1.63-2.11,3.38-4.12,5.18-6.09s3.7-3.83,5.61-5.69,3.85-3.68,5.87-5.43l.6-.52v.79a60.043,60.043,0,0,1-.45,6.92q-.4,3.44-1.1,6.83c-.49,2.25-1,4.5-1.65,6.71S305.21,241.57,304.41,243.73Z" transform="translate(687.625 738.324)" fill="#acb4c1"/>
    <path id="Path_35" data-name="Path 35" d="M308.41,253.71a61.007,61.007,0,0,0,5.87-2.72,25.187,25.187,0,0,0,2.74-1.67,12.15,12.15,0,0,0,2.36-2.07l.86-1.06-.27,1.34c-.41,2-.9,3.94-1.47,5.87s-1.25,3.84-2,5.72a52.852,52.852,0,0,1-2.56,5.49,32.575,32.575,0,0,1-3.37,5,44.7,44.7,0,0,0,3-5.21c.87-1.8,1.6-3.66,2.33-5.52s1.32-3.78,1.88-5.7,1.11-3.85,1.53-5.79l.59.28a11.25,11.25,0,0,1-2.55,2.14,25.693,25.693,0,0,1-2.87,1.58q-1.47.71-3,1.28C310.47,253.06,309.45,253.42,308.41,253.71Z" transform="translate(687.625 738.324)" fill="#acb4c1"/>
    <path id="Path_36" data-name="Path 36" d="M308.41,283.41c1.58-.53,3.14-1.12,4.66-1.78a22,22,0,0,0,2.22-1.09,9.049,9.049,0,0,0,1.94-1.4l.64-.65-.08.9a26.9,26.9,0,0,1-1.13,5.35,37.529,37.529,0,0,1-2.06,5,35.806,35.806,0,0,1-2.78,4.66,37.383,37.383,0,0,1-3.4,4.21c.51-.74,1.06-1.45,1.57-2.19s1-1.48,1.46-2.26a51.182,51.182,0,0,0,2.56-4.71,40.6,40.6,0,0,0,1.95-5,26.354,26.354,0,0,0,1.19-5.17l.56.25a8.121,8.121,0,0,1-2.14,1.44,22.475,22.475,0,0,1-2.32,1,35.209,35.209,0,0,1-4.84,1.44Z" transform="translate(687.625 738.324)" fill="#acb4c1"/>
    <path id="Path_37" data-name="Path 37" d="M263.36,291a19.791,19.791,0,0,1,1.25-6.68,27.481,27.481,0,0,1,3.15-6.07,28.17,28.17,0,0,1,2.15-2.67c.39-.42.76-.86,1.17-1.25l1.26-1.17c.82-.8,1.78-1.44,2.66-2.17s1.9-1.27,2.85-1.91l.33-.22.18.36a12.32,12.32,0,0,1,1.09,3.4,20.5,20.5,0,0,1,.33,3.5,25.338,25.338,0,0,1-1,6.91,38.49,38.49,0,0,1-2.47,6.49c-.54,1-1.1,2-1.66,3l-1.87,2.91,1.69-3c.51-1,1-2.06,1.5-3.1a38.258,38.258,0,0,0,2.24-6.48,27,27,0,0,0,.84-6.75,19.8,19.8,0,0,0-.35-3.37,12.13,12.13,0,0,0-1-3.16l.52.13c-.94.62-1.89,1.2-2.81,1.85a22.215,22.215,0,0,0-2.63,2.1,33.466,33.466,0,0,0-4.57,4.91,27.379,27.379,0,0,0-3.27,5.86,20.81,20.81,0,0,0-1.58,6.58Z" transform="translate(687.625 738.324)" fill="#acb4c1"/>
    <path id="Path_38" data-name="Path 38" d="M280.92,309.42a19.159,19.159,0,0,0,4.56-1.35,40.547,40.547,0,0,0,4.29-2.05c1.4-.76,2.75-1.59,4.1-2.42l2-1.31,1.95-1.37.68-.48-.11.82a37.246,37.246,0,0,1-1.26,5.6,35.512,35.512,0,0,1-2,5.36,25.381,25.381,0,0,1-3.06,4.85,15.3,15.3,0,0,1-4.4,3.61,16.46,16.46,0,0,0,4.1-3.85,24.888,24.888,0,0,0,2.81-4.86,37.454,37.454,0,0,0,1.92-5.29,47.237,47.237,0,0,0,1.21-5.49l.57.34-2,1.36-2,1.3c-1.37.83-2.76,1.64-4.2,2.34a36.5,36.5,0,0,1-4.42,1.89A17.438,17.438,0,0,1,280.92,309.42Z" transform="translate(687.625 738.324)" fill="#acb4c1"/>
    <path id="Path_39" data-name="Path 39" d="M321,176.11s5.59,12.37-36.07,62.39c0,0-29.37,36.25-30.25,75.83,0,0-7.73-46.5,26.26-81C319.64,194,321.48,179.94,321,176.11Z" transform="translate(687.625 738.324)" fill="#020202" opacity="0.03"/>
    <path id="Path_40" data-name="Path 40" d="M326.57,233.11S322,248,308.31,248.39C308.31,248.39,320.85,244.08,326.57,233.11Z" transform="translate(687.625 738.324)" fill="#020202" opacity="0.03"/>
    <path id="Path_41" data-name="Path 41" d="M322.1,271.49a8.62,8.62,0,0,1-9.69,5.59S319.8,275.35,322.1,271.49Z" transform="translate(687.625 738.324)" fill="#020202" opacity="0.03"/>
    <path id="Path_42" data-name="Path 42" d="M308.41,253.71s9.34-3.36,11.85-7.37c0,0-3.16,16-9.67,23.29,0,0,3.92-9.68,4.28-14.38C314.87,255.25,313.49,254.06,308.41,253.71Z" transform="translate(687.625 738.324)" fill="#020202" opacity="0.03"/>
    <path id="Path_43" data-name="Path 43" d="M308.86,283.28s7.51-2.1,8.6-4.72c0,0,1.28,6.86-8.6,19.53,0,0,4.27-7.07,5.16-13.19C314,284.9,313.39,283.94,308.86,283.28Z" transform="translate(687.625 738.324)" fill="#020202" opacity="0.03"/>
    <path id="Path_44" data-name="Path 44" d="M263.36,290.34s.76-12.94,14.68-20.89c0,0,5.64,8-4.79,25.38a39.38,39.38,0,0,0,3.64-19.49S269,278.54,263.36,290.34Z" transform="translate(687.625 738.324)" fill="#020202" opacity="0.03"/>
    <path id="Path_45" data-name="Path 45" d="M280.92,309.42s12-3.12,17.1-8.8c0,0-1.07,13.8-9.84,19.71a33.941,33.941,0,0,0,5.7-12.89S284.29,310.17,280.92,309.42Z" transform="translate(687.625 738.324)" fill="#020202" opacity="0.03"/>
    <path id="Path_46" data-name="Path 46" d="M322.1,271.49s-12.77,50.91-47.17,61.67c0,0,16.48-2.37,31.08-20.15a73,73,0,0,0,13.37-25.83C320.88,282.09,322.23,276.13,322.1,271.49Z" transform="translate(687.625 738.324)" fill="#fff" opacity="0.1"/>
    <path id="Path_47" data-name="Path 47" d="M326.57,233.11s-7.32,27.15-14.16,44C312.41,277.08,320.23,268.2,326.57,233.11Z" transform="translate(687.625 738.324)" fill="#fff" opacity="0.1"/>
    <path id="Path_48" data-name="Path 48" d="M321,176.11s-1.55,48.58-12.67,72.28C308.31,248.39,325.74,224.42,321,176.11Z" transform="translate(687.625 738.324)" fill="#fff" opacity="0.1"/>
    <g id="Group_5" data-name="Group 5" transform="translate(940.71 1038.264)" opacity="0.9">
      <path id="Path_49" data-name="Path 49" d="M263.36,306.45c-1.49,1.38-3,2.75-4.43,4.15-.72.71-1.41,1.43-2.09,2.16a14.332,14.332,0,0,0-1.78,2.31l-.58,1-.32-1.11a27.432,27.432,0,0,1-.75-3.74,34.518,34.518,0,0,1-.31-3.77,33.469,33.469,0,0,1,.62-7.51c0,1.26-.06,2.5,0,3.74s.09,2.48.21,3.71.27,2.46.45,3.68a34.737,34.737,0,0,0,.73,3.6l-.9-.1a12.612,12.612,0,0,1,2-2.44,28.353,28.353,0,0,1,2.27-2.07A45.938,45.938,0,0,1,263.36,306.45Z" transform="translate(-253.084 -299.94)" fill="#402311"/>
    </g>
    <g id="Group_6" data-name="Group 6" transform="translate(947.513 1044.464)" opacity="0.9">
      <path id="Path_50" data-name="Path 50" d="M263.6,306.14a10.31,10.31,0,0,0-1.25,3c-.28,1.06-.49,2.14-.68,3.22-.34,2.17-.49,4.37-.63,6.56s-.14,4.4-.14,6.61v3.31c0,1.1.06,2.21.07,3.31l-.72-.15a12.47,12.47,0,0,1,1.34-1.84,17.581,17.581,0,0,1,1.57-1.6,19.329,19.329,0,0,1,1.76-1.35,17,17,0,0,1,1.9-1.13,22.33,22.33,0,0,0-3.33,2.84,18.475,18.475,0,0,0-1.41,1.64,11.935,11.935,0,0,0-1.15,1.79l-.62,1.24-.11-1.39c-.17-2.21-.3-4.43-.31-6.66s0-4.45.18-6.68a48.314,48.314,0,0,1,1-6.62,22.732,22.732,0,0,1,.94-3.22A9.161,9.161,0,0,1,263.6,306.14Z" transform="translate(-259.887 -306.14)" fill="#402311"/>
    </g>
    <path id="Path_51" data-name="Path 51" d="M266.85,331.24l-1.43,2.55a16.84,16.84,0,0,0-1.23,2.58l-.29-.28c1-.29,1.95-.57,2.95-.77-.92.45-1.85.84-2.8,1.2l-.41.16.12-.44a10,10,0,0,1,1.28-2.69A16.087,16.087,0,0,1,266.85,331.24Z" transform="translate(687.625 738.324)" fill="#402311"/>
    <path id="Path_52" data-name="Path 52" d="M301.38,242.82a1.57,1.57,0,0,0,.87-.17,1.5,1.5,0,0,0,.52-1,14.45,14.45,0,0,0-.85-8.71c-2.26,1-9.75,3.94-10.27,6.73C291,243.16,299.3,242.83,301.38,242.82Z" transform="translate(687.625 738.324)" fill="#fff" opacity="0.15"/>
    <path id="Path_53" data-name="Path 53" d="M307.67,264.24a2.53,2.53,0,0,0,.61,1.12.87.87,0,0,0,1.17.05l1.82-3.55a4.17,4.17,0,0,0,.65-3.24A2.8,2.8,0,0,0,309.4,257C304.38,256.75,306.64,261.22,307.67,264.24Z" transform="translate(687.625 738.324)" fill="#fff" opacity="0.15"/>
    <path id="Path_54" data-name="Path 54" d="M279.51,263.85c1.66.48,2.58,2.31,2.75,4s-.19,3.45-.13,5.17a10.629,10.629,0,0,0,2.89,6.89c1,1,2.31,2.11,2.24,3.55-.05,1.17-1.05,2.22-.85,3.38a2.83,2.83,0,0,0,.95,1.5c2.25,2.11,6,2.64,8.45.72s2.46-6.31-.2-7.87c-1.6-.94-4-1-4.62-2.78a4.29,4.29,0,0,1,.29-2.71,57.1,57.1,0,0,0,2.25-9.68c.55-3.83.54-8.18-2.09-11a7.55,7.55,0,0,0-8.35-1.72c-2.33,1-3.94,3.16-5.46,5.2l-2.72,3.67A3.84,3.84,0,0,0,274,264C273.78,266.53,278,263.4,279.51,263.85Z" transform="translate(687.625 738.324)" fill="#fff" opacity="0.15"/>
    <path id="Path_55" data-name="Path 55" d="M268,286.35a4.46,4.46,0,0,1,2.3-2.63,4.521,4.521,0,0,1,1.2-.16.88.88,0,0,1,.69.17.86.86,0,0,1,.18.51,29,29,0,0,1,0,7.08,5.69,5.69,0,0,1-1.57,3.77c-1.57,1.33-3.52-1.57-4.08-2.93C265.86,290.09,267.09,288.25,268,286.35Z" transform="translate(687.625 738.324)" fill="#fff" opacity="0.15"/>
    <path id="Path_56" data-name="Path 56" d="M284.8,319.08a1.27,1.27,0,0,0,1.75-.07,3.11,3.11,0,0,0,.77-1.76,6,6,0,0,1,.5-1.88,7.4,7.4,0,0,1,1.92-1.82,2.44,2.44,0,0,0,1.06-2.29.66.66,0,0,0-.28-.42.85.85,0,0,0-.41-.08c-2,0-6-.86-6.82,1.65C283,313.41,284.16,318.36,284.8,319.08Z" transform="translate(687.625 738.324)" fill="#fff" opacity="0.15"/>
    <path id="Path_57" data-name="Path 57" d="M308.84,294.31a2.26,2.26,0,0,0,.13,1,.71.71,0,0,0,.87.41,1,1,0,0,0,.37-.37c1.75-2.59,1.8-5.92,1.79-9a.74.74,0,0,0-.08-.4.7.7,0,0,0-.45-.25C305.09,284.25,308.92,291,308.84,294.31Z" transform="translate(687.625 738.324)" fill="#fff" opacity="0.15"/>
    <path id="Path_58" data-name="Path 58" d="M277,320.67s-7.89,7.45-12.41,14.93C264.61,335.6,269.18,325.85,277,320.67Z" transform="translate(687.625 738.324)" fill="#020202" opacity="0.03"/>
    <path id="Path_59" data-name="Path 59" d="M217.09,196.42s-2.39,12.35-15.12,16.71C202,213.13,216.49,199.48,217.09,196.42Z" transform="translate(687.625 738.324)" fill="#fff" opacity="0.15"/>
    <path id="Path_60" data-name="Path 60" d="M211.12,246.15s-3.79,7.41-11.34,5.17A19.73,19.73,0,0,0,211.12,246.15Z" transform="translate(687.625 738.324)" fill="#020202" opacity="0.03"/>
    <path id="Path_61" data-name="Path 61" d="M184.61,213.13c7.39-7,11.9-21.41,11.9-21.41s3.38,7.56-1.19,23.27" transform="translate(687.625 738.324)" fill="#020202" opacity="0.03"/>
    <path id="Path_62" data-name="Path 62" d="M201.09,220.16a29,29,0,0,0,11.33-10.54s-1.4,13-7,19.53" transform="translate(687.625 738.324)" fill="#020202" opacity="0.03"/>
    <path id="Path_63" data-name="Path 63" d="M198.9,255.36s5.77-.28,9.74-2.62c0,0-2.19,8.19-5.77,10.78" transform="translate(687.625 738.324)" fill="none"/>
    <path id="Path_64" data-name="Path 64" d="M161.57,249.47s2.36-14.16,16.33-20.9c0,0,3.46,15.48-4.23,24.16" transform="translate(687.625 738.324)" fill="#020202" opacity="0.03"/>
    <path id="Path_65" data-name="Path 65" d="M211.12,246.15S207.44,264,205.45,265H207S212.46,254.88,211.12,246.15Z" transform="translate(687.625 738.324)" fill="#fff" opacity="0.15"/>
    <path id="Path_66" data-name="Path 66" d="M163.31,250s5-11.62,11.31-15.6c0,0,1.84,7.61-2.52,18.32C172.09,252.72,166.36,249.86,163.31,250Z" transform="translate(687.625 738.324)" fill="#020202" opacity="0.03"/>
    <path id="Path_67" data-name="Path 67" d="M187.6,213.13a30.72,30.72,0,0,0,8.25-13.72s-1.22,12.06-2.44,15.58Z" transform="translate(687.625 738.324)" fill="#020202" opacity="0.03"/>
    <path id="Path_68" data-name="Path 68" d="M202,222s5.54-2.92,8.35-7c0,0-2.25,9.44-5.57,12.1Z" transform="translate(687.625 738.324)" fill="#020202" opacity="0.03"/>
    <path id="Path_69" data-name="Path 69" d="M183.62,250.82c3.3-.62,6.71-.83,9.89-1.91s6.23-3.25,7.29-6.44a5,5,0,0,0,.27-2.15,7.539,7.539,0,0,0-1.64-3.35c-2.69-3.76-5.4-7.64-6.69-12.09-.55-1.91-.86-4-2-5.58a8.11,8.11,0,0,0-5.8-3,5,5,0,0,0-4.32,1.25c-1.81,2.06-.33,5.19.78,7.69a23.65,23.65,0,0,1-.75,20.65c-1,1.85-2.28,3.55-3.21,5.44s-.56,3.62,1.48,2.61C180.76,253,181.2,251.28,183.62,250.82Z" transform="translate(687.625 738.324)" fill="#020202" opacity="0.03"/>
    <path id="Path_70" data-name="Path 70" d="M161,265.61a13.38,13.38,0,0,0,.66,4.12,4.52,4.52,0,0,0,2.85,2.85,6.741,6.741,0,0,0,3.92-.56l3.69-1.31a3.72,3.72,0,0,0,1.51-.82c.86-.91.6-2.39.11-3.54s-1.19-2.32-1-3.56a8.829,8.829,0,0,1,1.13-2.5,6.76,6.76,0,0,0,.69-2.57,1.92,1.92,0,0,0-.15-1c-.4-.74-1.42-.79-2.26-.74a2.37,2.37,0,0,0-1.46.41c-.72.62-.49,1.88-1.16,2.56a1.75,1.75,0,0,1-2.31-.12,5.39,5.39,0,0,1-1.27-2.18c-.92-2.32-5.08-4.17-5.8-.78-.22,1,.4,2.44.52,3.47C160.85,261.39,160.84,263.52,161,265.61Z" transform="translate(687.625 738.324)" fill="#020202" opacity="0.03"/>
    <path id="Path_71" data-name="Path 71" d="M158.27,282.14S188.43,267.21,207,265H184.25Z" transform="translate(687.625 738.324)" fill="#020202" opacity="0.05"/>
    <path id="Path_72" data-name="Path 72" d="M132.75,91.25c-2.31-5.37-7.85-21.33,6.45-24a10.92,10.92,0,0,1,7.37,1.08c3.63,2,7.51,6.89,3.2,18.46-1.69,4.54-7.14,8.49-10.72,11.32-7.77,6.15-18.71,9.81-25.09,17.41-5.32,6.35-6.41,16.32-1.47,23.2a4.47,4.47,0,0,0,4.5,2.17,1.75,1.75,0,0,0,1.22-2.68c-1.87-2.91-3.63-9.52,9.07-18.4,7.1-5,15.38-8,22.28-13.57,12.28-9.82,19-28.72,10.18-42.9a15.13,15.13,0,0,0-10.67-7c-7.88-1.15-21.12-.61-26.38,14.19,0,0-6.62,13.44,6.31,21.89a11.33,11.33,0,0,0,1.82,1l.25.09C132.27,93.86,133.24,92.39,132.75,91.25Z" transform="translate(687.625 738.324)" fill="#93278f"/>
    <circle id="Ellipse_7" data-name="Ellipse 7" cx="5.09" cy="5.09" r="5.09" transform="translate(797.309 890.885) rotate(-54.57)" fill="#92278f"/>
    <circle id="Ellipse_8" data-name="Ellipse 8" cx="4.39" cy="4.39" r="4.39" transform="translate(798.285 890.72) rotate(-54.57)" fill="#963594"/>
    <path id="Path_73" data-name="Path 73" d="M114.13,131.25a23.39,23.39,0,0,1,2.66-5.66l5.25-9a5,5,0,0,0,.94-2.73,2.63,2.63,0,0,0-4.07-1.78c-.78.64-1.11,1.68-1.79,2.42a12.2,12.2,0,0,1-1.68,1.27,11.5,11.5,0,0,0-3.54,5.66,19.66,19.66,0,0,0-1.28,8.16c.16,1.75,1.13,6.17,3.33,6.07a11,11,0,0,1,.18-4.41Z" transform="translate(687.625 738.324)" fill="#963594"/>
    <path id="Path_74" data-name="Path 74" d="M150.5,94.8a14.53,14.53,0,0,0,2-3.68l2.22-5.25a11.13,11.13,0,0,0,1.26-5.2c-.14-1.53-.9-3-.95-4.48s.61-3,.68-4.48a10.94,10.94,0,0,0-1.52-5.27c-.84-1.69-2-3.55-3.9-3.79a1.75,1.75,0,0,0-2,1.19,2.48,2.48,0,0,0,.54,1.58,28.11,28.11,0,0,1,4,16.77,14.509,14.509,0,0,1-1.9,6.6,42,42,0,0,1-4,4.61c-.85,1-3.14,3.75-1.05,4.42C147.05,98.19,149.86,95.57,150.5,94.8Z" transform="translate(687.625 738.324)" fill="#963594"/>
    <path id="Path_75" data-name="Path 75" d="M123.81,84c-.63-2.38.87-4.81.86-7.27a14.7,14.7,0,0,1-.07-3.2c.23-1,1.3-2,2.3-1.64s1.09,1.78,1.05,2.86a34.289,34.289,0,0,0,2.45,13.89c.34.85.65,1.41,0,2.07C128.31,88.92,124.57,86.88,123.81,84Z" transform="translate(687.625 738.324)" fill="#963594"/>
    <path id="Path_76" data-name="Path 76" d="M408.33,345.44c-4.76-.53-18.4-3-14.54-14.36a9,9,0,0,1,3.76-4.82c2.92-1.77,8-2.57,14.47,5.2,2.55,3,3.16,8.54,3.73,12.24,1.23,8-.59,17.33,2.25,25,2.37,6.37,9,11.19,16,10.46a3.67,3.67,0,0,0,3.37-2.33,1.44,1.44,0,0,0-1.42-2c-2.83.15-8.26-1.27-9.45-13.94-.66-7.08.5-14.24-.64-21.4-2-12.74-12.8-25.18-26.47-24.66a12.42,12.42,0,0,0-9.31,4.78c-4,5.16-9,14.82-.57,24.58,0,0,6.9,10.17,18.17,4.38a9.3,9.3,0,0,0,1.45-.9l.17-.14C410,346.84,409.34,345.55,408.33,345.44Z" transform="translate(687.625 738.324)" fill="#93278f"/>
    <circle id="Ellipse_9" data-name="Ellipse 9" cx="4.18" cy="4.18" r="4.18" transform="translate(1126.787 1117.556) rotate(-24.95)" fill="#92278f"/>
    <circle id="Ellipse_10" data-name="Ellipse 10" cx="3.6" cy="3.6" r="3.6" transform="translate(1127.557 1117.837) rotate(-24.95)" fill="#963594"/>
    <path id="Path_77" data-name="Path 77" d="M429.31,374.95a19.2,19.2,0,0,1-3-4.2l-4.27-7.38a4.13,4.13,0,0,0-1.56-1.78,2.16,2.16,0,0,0-2.92,2.18,19.1,19.1,0,0,0,1,2.26,10.006,10.006,0,0,1,.23,1.71,9.43,9.43,0,0,0,2.6,4.82,16.139,16.139,0,0,0,5.3,4.22c1.31.59,4.86,1.7,5.68.08a9,9,0,0,1-3.06-1.91Z" transform="translate(687.625 738.324)" fill="#963594"/>
    <path id="Path_78" data-name="Path 78" d="M418.06,334.21a11.933,11.933,0,0,0-1.82-2.92l-2.84-3.71a9.131,9.131,0,0,0-3.2-3c-1.14-.52-2.47-.56-3.58-1.14s-1.87-1.64-2.92-2.3a9,9,0,0,0-4.38-1.05c-1.55-.08-3.36,0-4.28,1.25a1.44,1.44,0,0,0,0,1.93,2,2,0,0,0,1.34.26A23.07,23.07,0,0,1,410,327.45a11.909,11.909,0,0,1,3.94,4,34.432,34.432,0,0,1,1.67,4.71c.37,1,1.4,3.76,2.73,2.54C419.08,338.05,418.35,335,418.06,334.21Z" transform="translate(687.625 738.324)" fill="#963594"/>
    <path id="Path_79" data-name="Path 79" d="M399.53,348.88c-2-.52-3.08-2.57-4.84-3.56a12.059,12.059,0,0,1-2.31-1.25c-.65-.59-.93-1.76-.24-2.3s1.71-.05,2.47.41a28.139,28.139,0,0,0,10.9,3.89c.75.1,1.27.11,1.49.81C404.86,347.67,401.89,349.5,399.53,348.88Z" transform="translate(687.625 738.324)" fill="#963594"/>
    <circle id="Ellipse_11" data-name="Ellipse 11" cx="5.66" cy="5.66" r="5.66" transform="matrix(0.993, -0.115, 0.115, 0.993, 1025.57, 877.362)" fill="#93278f"/>
    <path id="Path_80" data-name="Path 80" d="M350.64,145.77s-3,7.3-10,3.84a19.79,19.79,0,0,0,1.48,11.56,5.62,5.62,0,0,0,5.89,3.12,17.65,17.65,0,0,0,7.17-2.82,5.55,5.55,0,0,0,2.24-6.21C356.44,152.18,354.5,147.93,350.64,145.77Z" transform="translate(687.625 738.324)" fill="#93278f"/>
    <circle id="Ellipse_12" data-name="Ellipse 12" cx="3.78" cy="3.78" r="3.78" transform="matrix(0.993, -0.115, 0.115, 0.993, 868.795, 889.681)" fill="#93278f"/>
    <path id="Path_81" data-name="Path 81" d="M189.66,155.86s-2,4.88-6.72,2.57a13.23,13.23,0,0,0,1,7.73,3.76,3.76,0,0,0,3.94,2.09,11.8,11.8,0,0,0,4.8-1.88,3.71,3.71,0,0,0,1.5-4.15C193.54,160.15,192.24,157.3,189.66,155.86Z" transform="translate(687.625 738.324)" fill="#93278f"/>
    <circle id="Ellipse_13" data-name="Ellipse 13" cx="4.36" cy="4.36" r="4.36" transform="matrix(0.993, -0.115, 0.115, 0.993, 1059.997, 954.578)" fill="#93278f"/>
    <path id="Path_82" data-name="Path 82" d="M375.84,225s-5.62-2.27-3-7.74a15.24,15.24,0,0,0-8.9,1.14,4.33,4.33,0,0,0-2.41,4.54,13.59,13.59,0,0,0,2.17,5.52,4.27,4.27,0,0,0,4.78,1.73C370.91,229.48,374.18,228,375.84,225Z" transform="translate(687.625 738.324)" fill="#93278f"/>
  </g>
</svg>
