<svg xmlns="http://www.w3.org/2000/svg" width="136.5" height="269" viewBox="0 0 136.5 269">
  <g id="Group_499" data-name="Group 499" transform="translate(-1112.5 -1184)">
    <path id="Subtraction_4" data-name="Subtraction 4" d="M134.5,280h-.015a135.418,135.418,0,0,1-27.091-2.732A133.76,133.76,0,0,1,59.3,257.029a134.893,134.893,0,0,1-48.73-59.176,133.821,133.821,0,0,1-7.837-25.247,135.81,135.81,0,0,1,0-54.213A133.764,133.764,0,0,1,22.97,70.3,134.892,134.892,0,0,1,82.146,21.57a133.821,133.821,0,0,1,25.247-7.837A135.492,135.492,0,0,1,134.5,11Z" transform="translate(1112.5 1173)" fill="#93278f" opacity="0.15"/>
    <g id="Subtraction_3" data-name="Subtraction 3" transform="translate(1177.5 1197)" fill="none">
      <path d="M71.5,205.45h0a81.009,81.009,0,0,1,0-160.9v160.9Z" stroke="none"/>
      <path d="M 69.49960327148438 203.1690979003906 L 69.49960327148438 46.83108520507813 C 51.27241134643555 49.4917106628418 34.52622222900391 58.4810791015625 22.14228057861328 72.30332946777344 C 15.78714942932129 79.39656829833984 10.81825828552246 87.47061157226563 7.373671054840088 96.30122375488281 C 3.807953834533691 105.4422454833984 1.99999725818634 115.0979385375977 1.99999725818634 125.000114440918 C 1.99999725818634 134.9022674560547 3.807953834533691 144.5579833984375 7.373671054840088 153.6990509033203 C 10.81825828552246 162.5295867919922 15.78712749481201 170.6036376953125 22.14228057861328 177.6968994140625 C 34.5262451171875 191.5191497802734 51.27241134643555 200.5084991455078 69.49960327148438 203.1690979003906 M 71.49960327148438 205.4499206542969 L 71.49960327148438 205.4487915039063 C 51.92451858520508 203.1620941162109 33.86673736572266 193.7802276611328 20.6526927947998 179.0314788818359 C 14.13699722290039 171.759033203125 9.042409896850586 163.4804992675781 5.510410308837891 154.4258575439453 C 1.853953838348389 145.0521545410156 -2.71208386948274e-06 135.1519165039063 -2.71208386948274e-06 125.000114440918 C -2.71208386948274e-06 114.8483047485352 1.853953838348389 104.9480667114258 5.510410308837891 95.57439422607422 C 9.042409896850586 86.51972198486328 14.13699722290039 78.24118041992188 20.6526927947998 70.96874237060547 C 33.86675643920898 56.2199592590332 51.92454147338867 46.83811187744141 71.49960327148438 44.55139541625977 L 71.49960327148438 205.4487915039063 L 71.49960327148438 205.4499206542969 Z" stroke="none" fill="#fff"/>
    </g>
  </g>
</svg>
