<svg xmlns="http://www.w3.org/2000/svg" width="116.87" height="123.801" viewBox="0 0 116.87 123.801">
  <g id="Group_494" data-name="Group 494" transform="translate(-758.313 -1488.395)">
    <path id="Path_113" data-name="Path 113" d="M725.32,146.13V250.874a4.162,4.162,0,0,0,2.27,3.558c11.135,6.306,61.539,31.431,112.474,0a4.153,4.153,0,0,0,2.126-3.477V146.13Z" transform="translate(32.993 1342.265)" fill="#93278f"/>
    <path id="Path_114" data-name="Path 114" d="M830.449,223.419V160.89H753.317c-6.072.595-11.027,5.135-11.027,11.288V244.77h68.691Z" transform="translate(31.311 1340.802)" fill="#f0efef"/>
    <path id="Path_115" data-name="Path 115" d="M818.58,251.641V230.29l19.432.009Z" transform="translate(23.748 1333.923)" fill="#d0d2d3"/>
    <path id="Path_116" data-name="Path 116" d="M797.248,146.13s.45,77.817-43.818,118.185c0,0,23.765,5.919,33.548,5.6,0,0,42.386-76.934,37.125-123.789Z" transform="translate(30.206 1342.265)" fill="#fff" opacity="0.1"/>
    <path id="Path_117" data-name="Path 117" d="M823.012,230.287a32.187,32.187,0,0,1-.532,17.495l9.4-10.315-.9-7.207Z" transform="translate(23.361 1333.926)" fill="#e6e7e7" opacity="0.3"/>
    <path id="Path_118" data-name="Path 118" d="M838.012,230.3s1.243,17.6-19.432,21.342Z" transform="translate(23.748 1333.922)" fill="#65308f" opacity="0.3"/>
    <path id="Path_119" data-name="Path 119" d="M767.454,244.77s14.747-32.3,15.189-83.88H755.4" transform="translate(30.011 1340.802)" fill="#231f20" opacity="0.03"/>
    <path id="Path_120" data-name="Path 120" d="M753.388,254.146h-.324a12.558,12.558,0,0,1-11.6-12.612V169.356a4.249,4.249,0,0,1,.27-1.5,8.423,8.423,0,0,1,3.441-4.387,16.486,16.486,0,0,1,16.153-.9c3.279,1.54,5.261,3.955,5.261,7.351v71.61a12.612,12.612,0,0,1-13.2,12.621Z" transform="translate(31.393 1340.804)" fill="#d0d2d3"/>
    <ellipse id="Ellipse_18" data-name="Ellipse 18" cx="12.567" cy="8.901" rx="12.567" ry="8.901" transform="translate(772.844 1501.692)" fill="#bbbdbf"/>
    <ellipse id="Ellipse_19" data-name="Ellipse 19" cx="5.955" cy="3.883" rx="5.955" ry="3.883" transform="translate(779.24 1506.755)" fill="#6e6f71"/>
    <ellipse id="Ellipse_20" data-name="Ellipse 20" cx="7.802" cy="5.081" rx="7.802" ry="5.081" transform="translate(777.393 1505.557)" fill="none" stroke="#6e6f71" stroke-miterlimit="10" stroke-width="0.25" opacity="0.3"/>
    <ellipse id="Ellipse_21" data-name="Ellipse 21" cx="10.108" cy="6.585" rx="10.108" ry="6.585" transform="translate(775.303 1504.007)" fill="none" stroke="#6e6f71" stroke-miterlimit="10" stroke-width="0.25" opacity="0.3"/>
    <path id="Path_121" data-name="Path 121" d="M747.837,178.646s-5.108,64.628,2.306,76.043c0,0-6.6-1.27-8.531-10.045l-.162-72.484S742.117,176.394,747.837,178.646Z" transform="translate(31.394 1339.685)" fill="#f0efef" opacity="0.15"/>
    <path id="Path_122" data-name="Path 122" d="M766.8,176.025s1.063,68.745,0,73.871c0,0,2.072-4.009,2.18-5.639l.108-1.631h0V172.16a7.657,7.657,0,0,1-2.288,3.865Z" transform="translate(28.881 1339.685)" fill="#231f20" opacity="0.05"/>
  </g>
</svg>
