<svg xmlns="http://www.w3.org/2000/svg" width="112.212" height="144.819" viewBox="0 0 112.212 144.819">
  <g id="Group_496" data-name="Group 496" transform="translate(-231.916 -1512.431)">
    <path id="Path_93" data-name="Path 93" d="M141,172.81V295.031a5.036,5.036,0,0,0,2.18,4.153c10.684,7.387,59.061,36.674,107.942,0a5.081,5.081,0,0,0,2.045-4.054V172.81Z" transform="translate(90.916 1339.621)" fill="#93278f"/>
    <path id="Path_94" data-name="Path 94" d="M253.212,205.5S197.944,251.165,141,265.345v24.044s69.034,4.36,112.167-37.72Z" transform="translate(90.916 1336.38)" fill="#fff" opacity="0.1"/>
    <path id="Path_95" data-name="Path 95" d="M160.42,196.72V310.458s39.143,21.231,78.277.352V196.72Z" transform="translate(88.991 1337.25)" fill="#f0efef"/>
    <path id="Path_96" data-name="Path 96" d="M213.2,224.99,193.27,259.5h39.855Z" transform="translate(85.734 1334.448)" fill="#754d29"/>
    <rect id="Rectangle_11" data-name="Rectangle 11" width="37.882" height="7.063" transform="translate(240.113 1552.19) rotate(-42.96)" fill="#d7dee2"/>
    <rect id="Rectangle_12" data-name="Rectangle 12" width="37.882" height="7.063" transform="translate(330.609 1559.163) rotate(-132.96)" fill="#d7dee2"/>
    <path id="Path_97" data-name="Path 97" d="M173.683,273.224l-.595,3.045h0a11.522,11.522,0,0,0,4.5-.315,4.612,4.612,0,0,0,1.874-1.225,3.153,3.153,0,0,0,.9-2.009l.171.054a8.7,8.7,0,0,0-1.153,3.937l-.117-.117a4.955,4.955,0,0,0,4.207-3.288l.162-.5.054.514.252,2.423-.1-.1a5.189,5.189,0,0,0,5.405-3.811l.207-.847v.9l.072,3.225h-.216a4.5,4.5,0,0,1,1.8-2.324,3.937,3.937,0,0,1,2.865-.586,2.7,2.7,0,0,1,2.171,1.883,2.459,2.459,0,0,1-.811,2.7v-.2a3.342,3.342,0,0,0,4.441-3.6l.189.054a4.135,4.135,0,0,0-1.342,2.288,1.739,1.739,0,0,0,.351,1.225,1.207,1.207,0,0,0,1.144.405,4.1,4.1,0,0,0,2.18-1.5,7.631,7.631,0,0,0,1.387-2.342l.216.072a3.225,3.225,0,0,0-.144,1.739,1.036,1.036,0,0,0,1.261.757,1.513,1.513,0,0,0,.577-.613l.5-.766,1.009-1.531.081-.126.1.108a2.82,2.82,0,0,1,.324,3.2l-.189.333V275.9a2.829,2.829,0,1,1,5.324,1.288l-.153-.153a13.513,13.513,0,0,0,4.261-3.549l.162.153a2.946,2.946,0,0,0-.973,2.243,1.387,1.387,0,0,0,.577,1.027,1.5,1.5,0,0,0,1.171.2,2.369,2.369,0,0,0,1.748-1.64,7.658,7.658,0,0,0,.27-2.558h.225a2.451,2.451,0,0,0,4.847.73l.153.072c-.351.351-.135.9.243,1.225a1.288,1.288,0,0,0,1.351.27,2.333,2.333,0,0,0,1.054-1.027,7.469,7.469,0,0,0,.586-1.405l.063-.189v.2l.288,2.829h0a8.108,8.108,0,0,0,2.117-1.955,8.108,8.108,0,0,1-2.1,1.991h0l-.414-2.847h.081a7.559,7.559,0,0,1-.577,1.432,2.45,2.45,0,0,1-1.1,1.09,1.432,1.432,0,0,1-1.5-.279,1.378,1.378,0,0,1-.45-.667.829.829,0,0,1,.18-.793l.2-.207-.054.288a2.651,2.651,0,0,1-5.243-.793h.225a7.856,7.856,0,0,1-.288,2.64,2.6,2.6,0,0,1-1.919,1.8,1.721,1.721,0,0,1-1.342-.234,1.613,1.613,0,0,1-.676-1.189,3.162,3.162,0,0,1,1.045-2.432l.162.153a13.711,13.711,0,0,1-4.333,3.6l-.342.18.2-.342a2.631,2.631,0,1,0-4.9-1.189l-.207-.054a2.6,2.6,0,0,0-.3-2.937h.18l-1.009,1.531-.5.766a1.7,1.7,0,0,1-.676.694,1.027,1.027,0,0,1-.982-.117,1.433,1.433,0,0,1-.595-.775,3.423,3.423,0,0,1,.144-1.865l.216.072a7.856,7.856,0,0,1-1.423,2.414,4.3,4.3,0,0,1-2.315,1.577,1.432,1.432,0,0,1-1.351-.477,1.955,1.955,0,0,1-.405-1.378,4.324,4.324,0,0,1,1.4-2.423l.144-.153.045.207a2.883,2.883,0,0,1-.18,1.8,3.928,3.928,0,0,1-2.757,2.225,2.883,2.883,0,0,1-1.8-.207l-.18-.081.162-.108a2.234,2.234,0,0,0,.721-2.486,2.477,2.477,0,0,0-2-1.721,3.712,3.712,0,0,0-2.7.559,4.3,4.3,0,0,0-1.694,2.207l-.207.613V275.1l-.072-3.225h.225a5.405,5.405,0,0,1-5.684,3.982h-.09v-.09l-.252-2.423h.216a5.18,5.18,0,0,1-4.405,3.441h-.126v-.126a8.549,8.549,0,0,1,1.216-4.027l.189-.315v.36a3.324,3.324,0,0,1-.946,2.1,4.747,4.747,0,0,1-1.946,1.234,11.584,11.584,0,0,1-4.567.252h0Z" transform="translate(87.737 1329.888)" fill="#414142"/>
    <path id="Path_98" data-name="Path 98" d="M179.06,286.227a12.071,12.071,0,0,0,3.27-1.216h0l1.18,2.405h-.09l3.6-2.991.108-.09.054.135a5.738,5.738,0,0,1,.324,2.883l-.207-.081,1.883-2.6.3-.414-.1.5a3.478,3.478,0,0,0,0,1.6,1.046,1.046,0,0,0,.423.6.9.9,0,0,0,.712.063c.459-.189.712-.739.973-1.216a4.279,4.279,0,0,1,.991-1.4l.2-.162v.252l-.207,3.216-.108-.117a3.531,3.531,0,0,0,3.6-2.928l.117.126a.991.991,0,0,0-.856.739,1.676,1.676,0,0,0,.072,1.216,1.27,1.27,0,0,0,.946.712,2.045,2.045,0,0,0,1.243-.153,3,3,0,0,0,1.649-1.883,9.784,9.784,0,0,0,.4-2.6l.216.045a11.712,11.712,0,0,0-.829,3.757l-.126-.117a3.7,3.7,0,0,0,2.793-2.018l.243-.5v.559l-.126,2.261-.171-.108,3.441-1.946.108-.063.054.117a12.307,12.307,0,0,1,.9,2.892h-.225a3.883,3.883,0,0,1,.9-2.36,3.117,3.117,0,0,1,2.225-1.18,2.649,2.649,0,0,1,2.216,1.162,2.261,2.261,0,0,1,.234,2.468l-.333.541.126-.622a5.405,5.405,0,0,1,3.522-3.982l.252-.081-.108.234a1.514,1.514,0,0,0,.55,1.739,1.8,1.8,0,0,0,1.847.36,2.234,2.234,0,0,0,1.225-1.5,2.9,2.9,0,0,0-.144-1.982h.207l-.811,2.7-.072-.126a4.829,4.829,0,0,0,4.234-.991l.162-.135-.063.2a5.964,5.964,0,0,0-.234,2.64H221.7a2.748,2.748,0,0,0,1.225-2.027h0a2.793,2.793,0,0,1-1.207,2.081h0v-.054a6.053,6.053,0,0,1,.189-2.7l.1.063a4.991,4.991,0,0,1-4.36,1.1h-.108v-.108l.793-2.7.081-.288.126.27a3.126,3.126,0,0,1,.162,2.135,2.459,2.459,0,0,1-1.351,1.649,2.036,2.036,0,0,1-2.081-.4,1.739,1.739,0,0,1-.613-2l.135.153a5.2,5.2,0,0,0-3.378,3.82l-.207-.081a2.036,2.036,0,0,0-.225-2.225,2.423,2.423,0,0,0-2.018-1.072,2.892,2.892,0,0,0-2.063,1.1,3.658,3.658,0,0,0-.847,2.225h-.225a12.08,12.08,0,0,0-.9-2.838l.162.054-3.558,1.955-.18.1v-.207l.126-2.261.216.054a3.928,3.928,0,0,1-2.964,2.144h-.135v-.135a11.955,11.955,0,0,1,.847-3.829l.261-.649v.694a9.981,9.981,0,0,1-.405,2.7,3.225,3.225,0,0,1-1.8,2.018,2.27,2.27,0,0,1-1.378.162,1.5,1.5,0,0,1-1.108-.838,1.892,1.892,0,0,1-.081-1.387,1.216,1.216,0,0,1,1.054-.9h.144v.135a3.748,3.748,0,0,1-3.82,3.126h-.117V287.7l.207-3.216.18.1a4.1,4.1,0,0,0-.9,1.324,2.639,2.639,0,0,1-1.1,1.324,1.1,1.1,0,0,1-.9-.081,1.27,1.27,0,0,1-.522-.73,3.684,3.684,0,0,1,0-1.712l.2.09-1.91,2.613-.27.369.063-.45a5.838,5.838,0,0,0-.288-2.775h.162l-3.6,2.919-.063.045v-.072l-1.081-2.414h.045a12.107,12.107,0,0,1-3.342,1.189Z" transform="translate(87.143 1328.786)" fill="#414142"/>
    <path id="Path_99" data-name="Path 99" d="M188.79,296.989a25.9,25.9,0,0,1,4.594-2.865l.117-.054v.126c.153.982.279,1.973.414,2.955l-.162-.09,3.829-1.757.1-.045.045.1c.342.7,0,1.441.234,2.045a.82.82,0,0,0,.577.631,1.6,1.6,0,0,0,.9-.261,16.152,16.152,0,0,0,3.4-2.252l.486-.423-.315.559a1.694,1.694,0,0,0-.126,1.649,1.1,1.1,0,0,0,1.5.234,1.748,1.748,0,0,0,.9-1.423,6.306,6.306,0,0,0-.135-1.8l.153.081a2.5,2.5,0,0,0-1.261,3.135l-.054-.063a4.784,4.784,0,0,0,6.261-2.7l.189.108a3.955,3.955,0,0,0-.9,2.27l-.153-.108a15.5,15.5,0,0,0,3.6-2.081l.153-.117v2.054l-.081-.063a1.73,1.73,0,0,0,1.117-.82v.009a2.045,2.045,0,0,0,.667.9h0l.721-1.018-.685,1.045h0a2.108,2.108,0,0,1-.712-.9h.072a1.8,1.8,0,0,1-1.162.9H213v-.081l-.09-1.865.162.072a14.108,14.108,0,0,1-3.676,2.135l-.162.063v-.18a4.18,4.18,0,0,1,.964-2.4l.378-.441-.18.55a5.009,5.009,0,0,1-6.567,2.865h0a2.7,2.7,0,0,1,1.378-3.432l.135-.054v.144a6.487,6.487,0,0,1,.135,1.874,1.982,1.982,0,0,1-.991,1.595,1.639,1.639,0,0,1-.955.207,1.126,1.126,0,0,1-.838-.522,1.91,1.91,0,0,1,.126-1.883l.171.144a16.377,16.377,0,0,1-3.441,2.279,1.8,1.8,0,0,1-1.045.279,1.045,1.045,0,0,1-.757-.793c-.216-.721.081-1.432-.216-2.009l.144.054-3.829,1.757-.135.063v-.153c-.135-.991-.27-1.973-.378-2.964l.135.072A25.8,25.8,0,0,0,188.79,296.989Z" transform="translate(86.178 1327.6)" fill="#414142"/>
    <path id="Path_100" data-name="Path 100" d="M180.947,191.65s-15.864,18.837-27.747,25.792l2.036,2.18,27.711-25.855Z" transform="translate(89.706 1337.753)" fill="#231f20" opacity="0.07"/>
    <path id="Path_101" data-name="Path 101" d="M225.31,190.524s20.351,16.378,25.666,27.864l2.252-2.1L227.409,188.56Z" transform="translate(82.558 1338.059)" fill="#231f20" opacity="0.07"/>
    <path id="Path_103" data-name="Path 103" d="M213.2,225s-10.135,26.594-6.838,34.512H193.27Z" transform="translate(85.734 1334.447)" fill="#010101" opacity="0.1"/>
    <path id="Path_104" data-name="Path 104" d="M187.861,231.87,171.51,260.184h32.7Z" transform="translate(87.891 1333.766)" fill="#8a5e3c"/>
    <path id="Path_105" data-name="Path 105" d="M171.51,260.184s12.486-15.054,21.315-19.72l-4.964-8.594Z" transform="translate(87.891 1333.766)" fill="#fff" opacity="0.05"/>
  </g>
</svg>
