<svg xmlns="http://www.w3.org/2000/svg" width="126.771" height="126.771" viewBox="0 0 126.771 126.771">
  <g id="Group_495" data-name="Group 495" transform="translate(-488.952 -1488.161)">
    <circle id="Ellipse_17" data-name="Ellipse 17" cx="63.385" cy="63.385" r="63.385" transform="translate(488.952 1488.161)" fill="#93278f"/>
    <path id="Path_106" data-name="Path 106" d="M514.042,151S472.981,205.674,431,232.592c0,0,8.108,21.207,27.1,31.864,0,0,67.944-62.394,78.916-97.375C537.042,167.081,524.555,154.261,514.042,151Z" transform="translate(62.168 1341.783)" fill="#fff" opacity="0.1"/>
    <path id="Path_107" data-name="Path 107" d="M537.547,210.331A45.944,45.944,0,1,0,484.4,258.3Z" transform="translate(60.708 1340.197)" fill="#fcee1f"/>
    <path id="Path_108" data-name="Path 108" d="M541.8,215.1,488.65,263.071S534.973,257.45,541.8,215.1Z" transform="translate(56.454 1335.428)" fill="#65308f" opacity="0.3"/>
    <path id="Path_109" data-name="Path 109" d="M507.486,201.273,518,203.687a5.243,5.243,0,0,1,2.171,9.162l-8.315,6.874a5.243,5.243,0,0,0-1.883,4.5l.982,10.747a5.243,5.243,0,0,1-8.036,4.892l-9.108-5.784a5.243,5.243,0,0,0-4.865-.4l-9.91,4.225a5.243,5.243,0,0,1-7.135-6.135l2.7-10.45a5.243,5.243,0,0,0-1.126-4.757l-7.081-8.108a5.243,5.243,0,0,1,3.6-8.684l10.81-.676a5.243,5.243,0,0,0,4.171-2.54l5.549-9.252a5.243,5.243,0,0,1,9.378.766l3.838,10.009a5.243,5.243,0,0,0,3.739,3.189Z" transform="translate(58.788 1338.437)" fill="#eb2227"/>
    <path id="Path_110" data-name="Path 110" d="M488.68,263.042l53.151-47.971S489.968,208.26,488.68,263.042Z" transform="translate(56.451 1335.458)" fill="#e6e7e7"/>
    <path id="Path_111" data-name="Path 111" d="M497.74,233.573s7.315,6.423,7.315,15.639l21.179-19.125s1.8-8.27-1.423-13.846C524.82,216.231,507.163,219,497.74,233.573Z" transform="translate(55.552 1335.315)" fill="#f2f2f2" opacity="0.42"/>
    <path id="Path_112" data-name="Path 112" d="M464.68,177.506s45.854,2.45,74.772,33.152C539.425,210.658,503.706,149.84,464.68,177.506Z" transform="translate(58.83 1339.87)" fill="#fff" opacity="0.3"/>
  </g>
</svg>
