<svg xmlns="http://www.w3.org/2000/svg" width="113.663" height="146.421" viewBox="0 0 113.663 146.421">
  <g id="Group_493" data-name="Group 493" transform="translate(-1021.827 -1511.16)">
    <path id="Path_85" data-name="Path 85" d="M1017.83,171.4V295.3a5.108,5.108,0,0,0,2.207,4.207c10.811,7.486,59.872,37.179,109.429,0a5.153,5.153,0,0,0,2.027-4.144V171.4Z" transform="translate(3.997 1339.76)" fill="#93278f"/>
    <path id="Path_86" data-name="Path 86" d="M1040.77,171.4s57.719,100.9,47.485,145.941c0,0,19.161-2.135,31.323-9.973,0,0-10.756-96.33-39.4-135.941Z" transform="translate(1.723 1339.76)" fill="#fff" opacity="0.1"/>
    <rect id="Rectangle_9" data-name="Rectangle 9" width="81.493" height="109.6" transform="translate(1037.934 1526.727)" fill="#754d29"/>
    <rect id="Rectangle_10" data-name="Rectangle 10" width="74.241" height="101.627" transform="translate(1041.538 1530.718)" fill="#f0efef"/>
    <path id="Path_87" data-name="Path 87" d="M1065.46,233.41v35.206l13.5-19.963,13.5,19.963V233.41Z" transform="translate(-0.725 1333.613)" fill="#eb2227"/>
    <path id="Path_88" data-name="Path 88" d="M1049.154,278.512l-.6,3.09h0a11.712,11.712,0,0,0,4.585-.324,4.686,4.686,0,0,0,1.9-1.243,3.2,3.2,0,0,0,.9-2.036l.171.054a8.819,8.819,0,0,0-1.171,3.991l-.117-.117a5.027,5.027,0,0,0,4.261-3.333l.162-.5.054.513.261,2.459-.1-.1a5.261,5.261,0,0,0,5.513-3.865l.207-.847v.9l.072,3.261h-.216a4.587,4.587,0,0,1,1.8-2.351,3.991,3.991,0,0,1,2.9-.595,2.7,2.7,0,0,1,2.2,1.9,2.5,2.5,0,0,1-.82,2.775v-.2a3.4,3.4,0,0,0,4.5-3.6l.189.054a4.189,4.189,0,0,0-1.36,2.315,1.8,1.8,0,0,0,.36,1.234,1.225,1.225,0,0,0,1.162.405,4.162,4.162,0,0,0,2.207-1.522,7.738,7.738,0,0,0,1.406-2.369l.216.072a3.272,3.272,0,0,0-.144,1.8,1.054,1.054,0,0,0,1.279.766,1.531,1.531,0,0,0,.585-.622l.514-.775,1.018-1.559.081-.126.1.108a2.865,2.865,0,0,1,.333,3.243l-.189.333v-.387a2.865,2.865,0,1,1,5.405,1.306l-.189-.3a13.675,13.675,0,0,0,4.315-3.6l.162.153a2.991,2.991,0,0,0-.982,2.279,1.406,1.406,0,0,0,.585,1.036,1.523,1.523,0,0,0,1.189.2,2.4,2.4,0,0,0,1.8-1.658,7.762,7.762,0,0,0,.279-2.595h.225a2.486,2.486,0,0,0,4.91.739l.153.072c-.36.36-.135.9.243,1.243a1.306,1.306,0,0,0,1.369.279,2.36,2.36,0,0,0,1.072-1.036,7.563,7.563,0,0,0,.595-1.423l.063-.189v.2l.288,2.874h0a8.233,8.233,0,0,0,2.144-1.982,8.257,8.257,0,0,1-2.126,2.018h0l-.333-2.865h.081a7.668,7.668,0,0,1-.586,1.45,2.478,2.478,0,0,1-1.117,1.108,1.45,1.45,0,0,1-1.522-.279,1.4,1.4,0,0,1-.46-.676.838.838,0,0,1,.189-.8l.2-.207-.054.288a2.7,2.7,0,0,1-5.315-.8h.225a7.965,7.965,0,0,1-.288,2.7,2.631,2.631,0,0,1-1.937,1.8,1.747,1.747,0,0,1-1.36-.234,1.629,1.629,0,0,1-.685-1.207,3.206,3.206,0,0,1,1.054-2.459l.162.153a13.9,13.9,0,0,1-4.387,3.658l-.342.18.2-.342a2.7,2.7,0,1,0-4.973-1.207l-.207-.054a2.639,2.639,0,0,0-.306-2.982h.18l-1.018,1.559-.513.775a1.729,1.729,0,0,1-.685.7,1.036,1.036,0,0,1-.991-.117,1.451,1.451,0,0,1-.595-.784,3.468,3.468,0,0,1,.144-1.892l.216.072a7.964,7.964,0,0,1-1.45,2.441,4.351,4.351,0,0,1-2.342,1.595,1.45,1.45,0,0,1-1.369-.487,1.982,1.982,0,0,1-.405-1.4,4.386,4.386,0,0,1,1.414-2.45l.144-.153.045.207a2.927,2.927,0,0,1-.189,1.8,3.982,3.982,0,0,1-2.793,2.252,2.919,2.919,0,0,1-1.8-.207l-.18-.081.162-.108a2.27,2.27,0,0,0,.73-2.522,2.513,2.513,0,0,0-2.027-1.748,3.766,3.766,0,0,0-2.7.568,4.36,4.36,0,0,0-1.72,2.234l-.207.613v-.649l-.072-3.261h.225a5.477,5.477,0,0,1-5.757,4.036h-.09v-.09l-.261-2.459h.216a5.252,5.252,0,0,1-4.5,3.486h-.126v-.126a8.663,8.663,0,0,1,1.234-4.081l.189-.315v.36a3.37,3.37,0,0,1-.955,2.126,4.811,4.811,0,0,1-1.973,1.252,11.711,11.711,0,0,1-4.621.261h0Z" transform="translate(0.951 1329.366)" fill="#414142"/>
    <path id="Path_89" data-name="Path 89" d="M1054.6,291.7a12.243,12.243,0,0,0,3.315-1.234h0l1.144,2.432h-.09l3.6-3.027.108-.09.054.135a5.819,5.819,0,0,1,.324,2.919l-.2-.081,1.91-2.64.3-.414-.1.5a3.529,3.529,0,0,0,0,1.622,1.062,1.062,0,0,0,.432.613.9.9,0,0,0,.721.063c.469-.2.73-.748.991-1.234a4.329,4.329,0,0,1,1-1.414l.2-.162v.252l-.207,3.252-.108-.117a3.6,3.6,0,0,0,3.6-2.973l.117.126a1.009,1.009,0,0,0-.9.757,1.694,1.694,0,0,0,.072,1.234,1.288,1.288,0,0,0,.964.721,2.081,2.081,0,0,0,1.261-.153,3.045,3.045,0,0,0,1.667-1.91,9.9,9.9,0,0,0,.405-2.64l.216.045a11.884,11.884,0,0,0-.838,3.811l-.126-.117a3.756,3.756,0,0,0,2.838-2.045l.243-.5v.559l-.126,2.3-.171-.108,3.486-1.973.108-.063.054.117a12.466,12.466,0,0,1,.9,2.928h-.225a3.926,3.926,0,0,1,.9-2.4,3.153,3.153,0,0,1,2.252-1.2,2.7,2.7,0,0,1,2.243,1.18,2.288,2.288,0,0,1,.234,2.5l-.333.541.126-.622a5.5,5.5,0,0,1,3.6-4.036l.252-.081-.108.234a1.532,1.532,0,0,0,.559,1.8,1.8,1.8,0,0,0,1.874.36,2.27,2.27,0,0,0,1.243-1.522,2.946,2.946,0,0,0-.153-2.009h.207l-.829,2.7-.072-.126a4.9,4.9,0,0,0,4.288-1l.162-.135-.063.2a6.046,6.046,0,0,0-.243,2.7h-.054a2.793,2.793,0,0,0,1.243-2.054h0a2.839,2.839,0,0,1-1.225,2.108h0v-.054a6.143,6.143,0,0,1,.2-2.7l.1.063a5.063,5.063,0,0,1-4.414,1.108h-.108v-.108l.8-2.7.081-.288.126.27a3.17,3.17,0,0,1,.162,2.162,2.5,2.5,0,0,1-1.369,1.676,2.063,2.063,0,0,1-2.108-.4,1.8,1.8,0,0,1-.622-2.027l.135.153a5.27,5.27,0,0,0-3.423,3.874l-.207-.081a2.063,2.063,0,0,0-.225-2.252,2.46,2.46,0,0,0-2.054-1.09,2.928,2.928,0,0,0-2.09,1.117,3.713,3.713,0,0,0-.9,2.252h-.225a12.245,12.245,0,0,0-.9-2.883l.162.054-3.486,1.973-.18.1v-.207l.126-2.3.216.054a3.982,3.982,0,0,1-3.009,2.171h-.135v-.135a12.106,12.106,0,0,1,.856-3.883l.261-.649v.694a10.116,10.116,0,0,1-.415,2.7,3.269,3.269,0,0,1-1.8,2.045,2.307,2.307,0,0,1-1.4.171,1.522,1.522,0,0,1-1.117-.847,1.919,1.919,0,0,1-.081-1.405,1.234,1.234,0,0,1,1.063-.9h.135v.135a3.8,3.8,0,0,1-3.865,3.171h-.117v-.117l.207-3.252.18.1a4.161,4.161,0,0,0-.9,1.342,2.7,2.7,0,0,1-1.108,1.342,1.108,1.108,0,0,1-.9-.081,1.28,1.28,0,0,1-.531-.739,3.736,3.736,0,0,1,0-1.739l.2.09-1.91,2.64-.27.369.063-.45a5.919,5.919,0,0,0-.3-2.811h.162l-3.666,2.964-.063.045v-.072l-1.1-2.45h.045A12.269,12.269,0,0,1,1054.6,291.7Z" transform="translate(0.352 1328.241)" fill="#414142"/>
    <path id="Path_90" data-name="Path 90" d="M1123.65,188.68s1.955,93.492,0,109.6h2.261V188.68Z" transform="translate(-6.493 1338.047)" fill="#8a5e3c" opacity="0.5"/>
    <circle id="Ellipse_14" data-name="Ellipse 14" cx="18.135" cy="18.135" r="18.135" transform="translate(1060.321 1540.862)" fill="#f69320"/>
    <circle id="Ellipse_15" data-name="Ellipse 15" cx="13.738" cy="13.738" r="13.738" transform="translate(1064.717 1545.258)" fill="#faaf43"/>
  </g>
</svg>
