<svg xmlns="http://www.w3.org/2000/svg" width="73" height="73" viewBox="0 0 73 73">
  <g id="c74cda4f917571a304c750ad698e9854" transform="translate(-10 -10)">
    <path id="Path_242" data-name="Path 242" d="M46.5,10A36.5,36.5,0,1,0,83,46.5,36.5,36.5,0,0,0,46.5,10Zm0,68.456A31.956,31.956,0,1,1,78.456,46.5,31.949,31.949,0,0,1,46.5,78.456Z" fill="#179f1c"/>
    <path id="Path_243" data-name="Path 243" d="M234.274,349.1a4.574,4.574,0,1,0,4.574,4.574A4.575,4.575,0,0,0,234.274,349.1Z" transform="translate(-203.335 -313.84)" fill="#179f1c"/>
    <path id="Path_244" data-name="Path 244" d="M649.674,349.1a4.574,4.574,0,1,0,4.566,4.574A4.575,4.575,0,0,0,649.674,349.1Z" transform="translate(-587.792 -313.84)" fill="#179f1c"/>
    <path id="Path_245" data-name="Path 245" d="M278.737,590.972c-10.57,10.451-26.347,10.451-36.917,0a2.172,2.172,0,0,1-.343-2.86,1.663,1.663,0,0,1,2.443.1c9.371,9.259,23.345,9.259,32.716,0a1.669,1.669,0,0,1,2.443-.1A2.163,2.163,0,0,1,278.737,590.972Z" transform="translate(-213.868 -534.595)" fill="#179f1c"/>
  </g>
</svg>
