<svg xmlns="http://www.w3.org/2000/svg" width="93.028" height="91.353" viewBox="0 0 93.028 91.353">
  <g id="Group_494" data-name="Group 494" transform="translate(-1061.45 -2029.75)">
    <path id="Path_124" data-name="Path 124" d="M1016.3,79.44h7.6a24.635,24.635,0,0,1,24.635,24.635V136.75a24.635,24.635,0,0,1-24.635,24.635H982.635A24.635,24.635,0,0,1,958,136.75V104.065A24.635,24.635,0,0,1,982.635,79.43H990.1" transform="translate(104.7 1958.468)" fill="none" stroke="#fdfeff" stroke-miterlimit="10" stroke-width="2.5"/>
    <path id="Path_125" data-name="Path 125" d="M958.04,99.52h32.2" transform="translate(104.878 1959.076)" fill="none" stroke="#fdfeff" stroke-miterlimit="10" stroke-width="2.5"/>
    <rect id="Rectangle_17" data-name="Rectangle 17" width="68.928" height="13.293" rx="6.646" transform="translate(1073.884 2071.884)" fill="none" stroke="#fdfeff" stroke-miterlimit="10" stroke-width="2.5"/>
    <rect id="Rectangle_18" data-name="Rectangle 18" width="68.928" height="13.293" rx="6.646" transform="translate(1073.796 2091.6)" fill="none" stroke="#fdfeff" stroke-miterlimit="10" stroke-width="2.5"/>
    <line id="Line_1" data-name="Line 1" x2="44.786" transform="translate(1086.399 2078.526)" fill="none" stroke="#fdfeff" stroke-linecap="round" stroke-miterlimit="10" stroke-width="2.5"/>
    <line id="Line_2" data-name="Line 2" x2="4.681" transform="translate(1086.399 2098.241)" fill="none" stroke="#fdfeff" stroke-linecap="round" stroke-miterlimit="10" stroke-width="2.5"/>
    <line id="Line_3" data-name="Line 3" x2="4.681" transform="translate(1100.332 2098.241)" fill="none" stroke="#fdfeff" stroke-linecap="round" stroke-miterlimit="10" stroke-width="2.5"/>
    <line id="Line_4" data-name="Line 4" x2="4.681" transform="translate(1113.881 2098.241)" fill="none" stroke="#fdfeff" stroke-linecap="round" stroke-miterlimit="10" stroke-width="2.5"/>
    <line id="Line_5" data-name="Line 5" x2="4.681" transform="translate(1126.504 2098.241)" fill="none" stroke="#fdfeff" stroke-linecap="round" stroke-miterlimit="10" stroke-width="2.5"/>
    <circle id="Ellipse_28" data-name="Ellipse 28" cx="16.397" cy="16.397" r="16.397" transform="translate(1091.808 2031)" fill="none" stroke="#fdfeff" stroke-miterlimit="10" stroke-width="2.5"/>
    <path id="Path_127" data-name="Path 127" d="M1008.995,77.38c.325.069.66.108.985.2a6.011,6.011,0,0,1,4.553,5.055,6.188,6.188,0,0,1-7.42,7.036,5.686,5.686,0,0,1-1.31-.434.236.236,0,0,0-.335.049l-2.276,2.276.788.778a.572.572,0,0,1,0,.818l-1.813,1.813a.572.572,0,0,1-.818,0l-.749-.749-.9.907.749.739a.572.572,0,0,1,0,.818l-1.833,1.833a.571.571,0,0,1-.818,0l-.788-.788-.709.709a.572.572,0,0,1-.818,0l-2.375-2.395a1.135,1.135,0,0,0,.187-.148l9.351-9.332a.345.345,0,0,0,.069-.394,6.208,6.208,0,0,1,4.129-8.593c.315-.079.641-.128.985-.187Zm-4.552,9.213-9.47,9.479.985.985,1.114-1.143,1.192,1.2.818-.818-1.153-1.173,2.72-2.72,1.143,1.173.857-.857-1.2-1.153,3.942-4.02a4.963,4.963,0,1,0,.246-8.061,4.838,4.838,0,0,0-1.971,2.769,5,5,0,0,0,.778,4.336Z" transform="translate(104.187 1958.498)" fill="#fdfeff"/>
    <path id="Path_128" data-name="Path 128" d="M1009.819,80.36a2.05,2.05,0,1,1-1.469.6,2.069,2.069,0,0,1,1.469-.6Zm-.808,2.059a.8.8,0,1,0,.788-.8.8.8,0,0,0-.818.8Z" transform="translate(104.152 1959.356)" fill="#fdfeff"/>
  </g>
</svg>
