<svg xmlns="http://www.w3.org/2000/svg" width="92.979" height="84.416" viewBox="0 0 92.979 84.416">
  <g id="Group_" data-name="Group " transform="translate(-652.119 -2041.155)">
    <rect id="Rectangle_19" data-name="Rectangle 19" width="90.479" height="81.916" rx="30" transform="translate(653.369 2042.405)" fill="none" stroke="#fff" stroke-miterlimit="10" stroke-width="2.5"/>
    <rect id="Rectangle_20" data-name="Rectangle 20" width="53.093" height="10.307" rx="5.154" transform="translate(680.201 2057.837)" fill="none" stroke="#fff" stroke-miterlimit="10" stroke-width="2.5"/>
    <line id="Line_6" data-name="Line 6" x2="34.715" transform="translate(689.562 2062.99)" fill="none" stroke="#fff" stroke-linecap="round" stroke-miterlimit="10" stroke-width="2.5"/>
    <rect id="Rectangle_21" data-name="Rectangle 21" width="53.093" height="10.307" rx="5.154" transform="translate(680.201 2078.51)" fill="none" stroke="#fff" stroke-miterlimit="10" stroke-width="2.5"/>
    <line id="Line_7" data-name="Line 7" x2="34.715" transform="translate(689.562 2083.654)" fill="none" stroke="#fff" stroke-linecap="round" stroke-miterlimit="10" stroke-width="2.5"/>
    <rect id="Rectangle_22" data-name="Rectangle 22" width="53.093" height="10.307" rx="5.154" transform="translate(680.201 2098.956)" fill="none" stroke="#fff" stroke-miterlimit="10" stroke-width="2.5"/>
    <line id="Line_8" data-name="Line 8" x2="34.715" transform="translate(689.562 2104.102)" fill="none" stroke="#fff" stroke-linecap="round" stroke-miterlimit="10" stroke-width="2.5"/>
    <path id="Path_129" data-name="Path 129" d="M556.764,122.054l.719-.857,3.153-3.794,2.621-3.163c.305-.365.6-.729.916-1.084a1,1,0,0,1,1.478,1.36l-2.375,2.848-2.769,3.34-2.68,3.222a4.855,4.855,0,0,1-.453.522.985.985,0,0,1-1.448-.158l-1.567-1.971-1.1-1.38-.709-.887a.916.916,0,0,1-.128-.985,1.007,1.007,0,0,1,1.754-.177c.315.414.66.818.985,1.232l1.163,1.449C556.439,121.719,556.6,121.867,556.764,122.054Z" transform="translate(110.804 1964.882)" fill="#fff"/>
    <path id="Path_130" data-name="Path 130" d="M556.764,143.124l.719-.857,3.153-3.794,2.621-3.163c.305-.365.6-.729.916-1.084a1,1,0,0,1,1.478,1.36l-2.375,2.848-2.769,3.34L557.828,145a4.85,4.85,0,0,1-.453.522.985.985,0,0,1-1.448-.158l-1.567-1.971-1.1-1.38-.709-.887a.916.916,0,0,1-.128-.985,1.007,1.007,0,0,1,1.754-.177c.315.414.66.818.985,1.232l1.163,1.449C556.439,142.779,556.6,142.946,556.764,143.124Z" transform="translate(110.804 1964.356)" fill="#fff"/>
    <path id="Path_131" data-name="Path 131" d="M556.764,101.084l.719-.857,3.153-3.794,2.621-3.163c.305-.365.6-.729.916-1.084a1,1,0,0,1,1.478,1.36l-2.375,2.848-2.769,3.34-2.68,3.222a4.856,4.856,0,0,1-.453.522.985.985,0,0,1-1.448-.158l-1.567-1.971-1.1-1.38-.709-.887a.916.916,0,0,1-.128-.985,1.007,1.007,0,0,1,1.754-.177c.315.414.66.818.985,1.232l1.163,1.449C556.439,100.749,556.6,100.867,556.764,101.084Z" transform="translate(110.804 1965.188)" fill="#fff"/>
  </g>
</svg>
