<svg xmlns="http://www.w3.org/2000/svg" width="96.526" height="73.126" viewBox="0 0 96.526 73.126">
  <g id="Group_497" data-name="Group 497" transform="translate(-1058.939 -2292.651)">
    <path id="Path_134" data-name="Path 134" d="M999,348.12v25.009a.227.227,0,0,0,.414.128l9.46-13.993,9.46,13.993a.227.227,0,0,0,.414-.128V348.12Z" transform="translate(104.28 1954.63)" fill="none" stroke="#89298f" stroke-miterlimit="10" stroke-width="2.5"/>
    <path id="Path_135" data-name="Path 135" d="M1040.881,362.891V395.3a14.781,14.781,0,0,1-14.781,14.781H990.961A14.781,14.781,0,0,1,976.18,395.3v-32.41a14.781,14.781,0,0,1,14.781-14.781h35.7" transform="translate(104.613 1954.446)" fill="none" stroke="#93278f" stroke-miterlimit="10" stroke-width="2.5"/>
    <line id="Line_13" data-name="Line 13" x1="8.691" transform="translate(1072.112 2332.827)" fill="none" stroke="#8f278f" stroke-linecap="round" stroke-miterlimit="10" stroke-width="2.5"/>
    <line id="Line_14" data-name="Line 14" x1="7.992" transform="translate(1066.663 2342.72)" fill="none" stroke="#8e288f" stroke-linecap="round" stroke-miterlimit="10" stroke-width="2.5"/>
    <line id="Line_15" data-name="Line 15" x1="9.765" transform="translate(1060.189 2321.111)" fill="none" stroke="#90288f" stroke-linecap="round" stroke-miterlimit="10" stroke-width="2.5"/>
    <line id="Line_16" data-name="Line 16" x1="11.342" transform="translate(1060.297 2351.066)" fill="none" stroke="#91278f" stroke-linecap="round" stroke-miterlimit="10" stroke-width="2.5"/>
    <rect id="Rectangle_24" data-name="Rectangle 24" width="39.199" height="7.548" rx="3.774" transform="translate(1093.485 2338.089)" fill="none" stroke="#8f288f" stroke-miterlimit="10" stroke-width="2.5"/>
    <line id="Line_17" data-name="Line 17" x1="17.106" transform="translate(1104.068 2353.56)" fill="none" stroke="#91278f" stroke-linecap="round" stroke-miterlimit="10" stroke-width="2.5"/>
    <circle id="Ellipse_30" data-name="Ellipse 30" cx="11.638" cy="11.638" r="11.638" transform="translate(1130.94 2293.901)" fill="none" stroke="#90278f" stroke-miterlimit="10" stroke-width="2.5"/>
    <path id="Path_136" data-name="Path 136" d="M1036.4,354.623l.769-.926,3.38-4.08,2.818-3.4c.325-.394.641-.788.985-1.173a.985.985,0,0,1,1.291-.168,1.054,1.054,0,0,1,.3,1.636l-2.552,3.065-2.956,3.587-2.877,3.469a5.219,5.219,0,0,1-.483.562,1.055,1.055,0,0,1-1.557-.177l-1.685-2.109-1.192-1.488-.759-.985a.986.986,0,0,1-.138-1.094,1.074,1.074,0,0,1,.985-.66,1.045,1.045,0,0,1,.926.463c.345.443.709.877,1.054,1.32l1.251,1.557A2.068,2.068,0,0,0,1036.4,354.623Z" transform="translate(103.803 1954.716)" fill="#92288f"/>
  </g>
</svg>
