<svg xmlns="http://www.w3.org/2000/svg" width="94.94" height="86.189" viewBox="0 0 94.94 86.189">
  <g id="Group_495" data-name="Group 495" transform="translate(-650.148 -2286.692)">
    <rect id="Rectangle_23" data-name="Rectangle 23" width="92.44" height="83.69" rx="30" transform="translate(651.398 2287.942)" fill="none" stroke="#93278f" stroke-linecap="round" stroke-miterlimit="10" stroke-width="2.5"/>
    <line id="Line_9" data-name="Line 9" x1="88" transform="translate(653.5 2307.5)" fill="none" stroke="#93278f" stroke-linecap="round" stroke-miterlimit="10" stroke-width="2.5"/>
    <line id="Line_10" data-name="Line 10" x2="35.898" transform="translate(679.422 2298.597)" fill="none" stroke="#93278f" stroke-linecap="round" stroke-miterlimit="10" stroke-width="2.5"/>
    <path id="Path_132" data-name="Path 132" d="M582.533,402.981h23.709a8.06,8.06,0,0,0,8.06-8.06v-16.87a8.06,8.06,0,0,0-8.06-8.061H582.051a8.061,8.061,0,0,0-8.061,8.061l.089,7.282" transform="translate(110.488 1956.126)" fill="none" stroke="#93278f" stroke-linecap="round" stroke-miterlimit="10" stroke-width="2.5"/>
    <path id="Path_133" data-name="Path 133" d="M584.3,369.83s8.474-25.788,20.851,0" transform="translate(110.337 1955.483)" fill="none" stroke="#93278f" stroke-linecap="round" stroke-miterlimit="10" stroke-width="2.5"/>
    <circle id="Ellipse_29" data-name="Ellipse 29" cx="12.298" cy="12.298" r="12.298" transform="translate(669.234 2341.34)" fill="none" stroke="#93278f" stroke-linecap="round" stroke-miterlimit="10" stroke-width="2.5"/>
    <line id="Line_11" data-name="Line 11" y2="14.594" transform="translate(681.561 2346.514)" fill="none" stroke="#93278f" stroke-linecap="round" stroke-miterlimit="10" stroke-width="2.5"/>
    <line id="Line_12" data-name="Line 12" x2="14.594" transform="translate(674.239 2353.815)" fill="none" stroke="#93278f" stroke-linecap="round" stroke-miterlimit="10" stroke-width="2.5"/>
  </g>
</svg>
